<svg width="32" height="54" viewBox="0 0 32 54" fill="none" xmlns="http://www.w3.org/2000/svg">
<path fill-rule="evenodd" clip-rule="evenodd" d="M12.0508 23.6608C11.7309 24.034 11.1844 24.074 10.8111 23.7674L10.7844 23.7541L2.89309 17.0757C2.70647 16.9158 2.58651 16.6625 2.58651 16.4092V1.21304C2.58651 0.719827 2.98641 0.333252 3.46629 0.333252H27.7136C28.2068 0.333252 28.5933 0.733157 28.5933 1.21304V16.4092C28.5933 16.6625 28.4867 16.9025 28.2867 17.0757L20.1688 23.9407C20.0088 24.0873 19.8089 24.154 19.6089 24.154C19.369 24.154 19.1157 24.0473 18.9424 23.8474C18.6358 23.4741 18.6758 22.9143 19.0491 22.6077L20.7286 21.1947V2.09281H10.4912V21.1947L11.9442 22.4211C12.3174 22.741 12.3574 23.2875 12.0508 23.6608ZM22.4749 19.7151L26.8471 16.0227V2.10614H22.4749V19.7151ZM8.73164 2.10614H4.3594V16.0227L8.73164 19.7151V2.10614ZM29.1399 33.5116C30.0463 33.5649 30.8328 34.1515 31.1127 35.0312H31.0861C31.366 35.8977 31.0994 36.8441 30.3796 37.4173L24.9276 41.8295C24.2478 42.3894 23.9545 43.2825 24.1811 44.1223L25.994 50.8939C26.234 51.7737 25.914 52.7068 25.1676 53.24C24.781 53.5199 24.3278 53.6666 23.8745 53.6666C23.4613 53.6666 23.0481 53.5466 22.6749 53.3067L16.7963 49.4809C16.0765 49.0011 15.1301 49.0011 14.3969 49.4809L8.51838 53.3067C7.74524 53.7999 6.77216 53.7865 6.02568 53.24C5.29253 52.7068 4.95929 51.787 5.19923 50.8939L7.01211 44.1223C7.23872 43.2692 6.94544 42.3761 6.26561 41.8295L0.813644 37.4173C0.107154 36.8441 -0.172774 35.911 0.107156 35.0312C0.387086 34.1515 1.16022 33.5649 2.07999 33.5116L9.09158 33.1384C9.95803 33.0984 10.7312 32.5385 11.0378 31.7254L13.5571 25.1804C13.8904 24.3272 14.6902 23.7674 15.61 23.7674C16.5297 23.7674 17.3295 24.3272 17.6628 25.1804L20.1821 31.7254C20.4887 32.5385 21.2619 33.0984 22.1283 33.1384L29.1399 33.5116ZM23.8479 40.4699L29.2998 36.0576C29.5131 35.8843 29.4731 35.6711 29.4465 35.5778C29.4198 35.4978 29.3265 35.2845 29.0466 35.2712L22.035 34.8979C20.4754 34.8179 19.1024 33.8182 18.5425 32.3652L16.0232 25.8202C15.9299 25.5536 15.7033 25.5269 15.61 25.5269C15.5166 25.5269 15.29 25.5669 15.1967 25.8202L12.6774 32.3652C12.1175 33.8182 10.7445 34.8179 9.18488 34.8979L2.17331 35.2712C1.89338 35.2845 1.80007 35.4978 1.77341 35.5778C1.74675 35.6577 1.70676 35.8843 1.92004 36.0576L7.372 40.4699C8.58503 41.4563 9.1049 43.0692 8.705 44.5755L6.89212 51.3471C6.82547 51.6138 6.98544 51.787 7.06542 51.827L7.07127 51.83C7.15484 51.8719 7.3507 51.9702 7.57196 51.827L13.4505 48.0013C14.1036 47.5748 14.8635 47.3615 15.61 47.3615C16.3564 47.3615 17.1162 47.5748 17.7694 48.0013L23.6479 51.827C23.8746 51.987 24.0745 51.8804 24.1545 51.827C24.2344 51.7737 24.3944 51.6138 24.3278 51.3471L22.5149 44.5755C22.115 43.0692 22.6349 41.4563 23.8479 40.4699Z" fill="#BA94D8"/>
</svg>
