<svg width="70" height="63" viewBox="0 0 70 63" fill="none" xmlns="http://www.w3.org/2000/svg">
<path fill-rule="evenodd" clip-rule="evenodd" d="M48.3 9.01109C48.9125 9.29109 49.56 9.43109 50.225 9.43109C50.6275 9.43109 51.0125 9.37859 51.3975 9.27359C52.57 8.95859 53.55 8.20609 54.1625 7.15609C54.775 6.10609 54.9325 4.88109 54.6175 3.70859C53.97 1.27609 51.4675 -0.158909 49.035 0.488591C48.0025 0.768591 47.0925 1.39859 46.48 2.27359C45.71 3.37609 45.465 4.75859 45.815 6.07109C46.165 7.38359 47.075 8.45109 48.3 9.02859V9.01109ZM48.2125 3.48109C48.545 3.00859 49.035 2.67609 49.5775 2.51859C49.7875 2.46609 49.9975 2.43109 50.2075 2.43109C51.2925 2.43109 52.2725 3.14859 52.57 4.25109C52.745 4.88109 52.6575 5.54609 52.325 6.10609C51.9925 6.66609 51.4675 7.08609 50.8375 7.24359C50.2775 7.38359 49.6825 7.34859 49.175 7.10359C48.51 6.78859 48.0375 6.21109 47.845 5.51109C47.6525 4.81109 47.7925 4.05859 48.2125 3.46359V3.48109ZM18.6025 9.29109C18.9875 9.39609 19.39 9.44859 19.775 9.44859C20.7025 9.44859 21.6125 9.16859 22.3825 8.62609C23.2575 8.01359 23.8875 7.10359 24.1675 6.07109C24.4825 4.89859 24.325 3.67359 23.7125 2.62359C23.1 1.57359 22.12 0.821093 20.9475 0.506093C19.775 0.191093 18.55 0.348593 17.5 0.961093C16.45 1.57359 15.6975 2.55359 15.3825 3.72609C15.1025 4.75859 15.2075 5.86109 15.645 6.82359C16.2225 8.04859 17.29 8.95859 18.6025 9.30859V9.29109ZM17.4125 4.25109C17.5875 3.62109 17.99 3.09609 18.55 2.76359C18.935 2.55359 19.355 2.43109 19.775 2.43109C19.985 2.43109 20.195 2.46609 20.405 2.51859C21.035 2.69359 21.56 3.09609 21.8925 3.65609C22.225 4.21609 22.3125 4.88109 22.1375 5.51109C21.9975 6.07109 21.6475 6.56109 21.175 6.87609C20.58 7.29609 19.8275 7.41859 19.1275 7.24359C18.4275 7.05109 17.85 6.56109 17.535 5.91359C17.29 5.38859 17.2375 4.81109 17.395 4.25109H17.4125ZM19.4075 11.5486C19.4075 11.5486 19.3375 11.5486 19.285 11.5136C18.4275 11.2686 17.5175 11.7236 17.22 12.5636C16.5725 14.4011 16.52 16.3611 17.0625 18.2161C17.2025 18.6711 17.6225 18.9686 18.0775 18.9686C18.1825 18.9686 18.27 18.9686 18.375 18.9336C18.935 18.7761 19.25 18.1811 19.0925 17.6386C18.7075 16.3261 18.7075 14.9611 19.0925 13.6486C20.895 14.0686 22.7675 13.8061 24.3775 12.8611C25.9875 11.9336 27.16 10.4461 27.7025 8.67862C29.0325 9.01112 30.2225 9.69362 31.1675 10.6736C31.57 11.0936 32.235 11.1111 32.655 10.7086C33.075 10.3061 33.0925 9.64112 32.69 9.22112C31.3425 7.82112 29.6275 6.89362 27.72 6.54362C26.845 6.36862 25.9875 6.92862 25.7775 7.82112C25.7775 7.85612 25.7775 7.89112 25.7425 7.92612C25.3925 9.25612 24.535 10.3761 23.345 11.0586C22.155 11.7411 20.755 11.9336 19.425 11.5836L19.4075 11.5486ZM42.315 8.66109C40.985 8.99359 39.795 9.67609 38.85 10.6561L38.8675 10.6211C38.465 11.0411 37.8 11.0586 37.38 10.6561C36.96 10.2536 36.9425 9.58859 37.345 9.16859C38.675 7.78609 40.4075 6.85859 42.315 6.49109C43.19 6.33359 44.0475 6.87609 44.2575 7.75109C44.2925 7.80359 44.2925 7.83859 44.2925 7.87359C44.6425 9.20359 45.5 10.3236 46.69 11.0061C47.88 11.7061 49.28 11.8811 50.61 11.5311C50.645 11.5136 50.68 11.4961 50.715 11.4961C51.6075 11.2511 52.5 11.7061 52.7975 12.5461C53.445 14.3836 53.4975 16.3436 52.955 18.1986C52.815 18.6536 52.395 18.9511 51.94 18.9511C51.835 18.9511 51.7475 18.9511 51.6425 18.9161C51.0825 18.7586 50.7675 18.1811 50.925 17.6211C51.31 16.3086 51.31 14.9436 50.925 13.6311C49.1225 14.0511 47.25 13.7711 45.64 12.8436C44.0125 11.9161 42.84 10.4286 42.315 8.66109ZM58.3625 31.2536C58.3625 32.6361 58.8875 33.9311 59.8675 34.9111H59.85C59.8552 34.9164 59.8605 34.9232 59.8663 34.9307L59.8663 34.9308C59.8797 34.9482 59.8956 34.9689 59.92 34.9811C60.585 35.6286 60.6375 36.6436 60.06 37.3086C58.7825 38.7786 57.12 39.7936 55.2475 40.2661C55.1775 40.3011 55.09 40.3011 55.0025 40.3011C54.53 40.3011 54.11 39.9686 53.9875 39.4961C53.8475 38.9361 54.1975 38.3586 54.7575 38.2186C56.07 37.9036 57.26 37.2036 58.205 36.2236C56.945 34.8761 56.245 33.1261 56.245 31.2536C56.245 29.3811 56.9275 27.6311 58.205 26.2836C57.2775 25.3036 56.0875 24.6211 54.7575 24.2886C54.1975 24.1486 53.8475 23.5711 53.9875 23.0111C54.1275 22.4511 54.705 22.1011 55.265 22.2411C57.1375 22.6961 58.8175 23.7286 60.0775 25.1986C60.655 25.8636 60.6025 26.8961 59.955 27.5086L59.8675 27.5961C58.905 28.5761 58.3625 29.8711 58.3625 31.2536ZM68.67 28.0336C67.9175 27.2811 66.92 26.8086 65.8525 26.7211C64.505 26.5986 63.1925 27.0886 62.23 28.0336C61.2675 28.9961 60.795 30.3086 60.9175 31.6561C61.005 32.7236 61.4775 33.7211 62.23 34.4736C63.1225 35.3661 64.2775 35.8036 65.45 35.8036C66.6225 35.8036 67.7775 35.3661 68.67 34.4736C69.5275 33.6161 70 32.4786 70 31.2536C70 30.0286 69.5275 28.8911 68.67 28.0336ZM63.7175 32.9861C63.315 32.5836 63.0525 32.0411 63.0175 31.4636C62.9475 30.7461 63.21 30.0286 63.7175 29.5211C64.1725 29.0661 64.8025 28.8036 65.45 28.8036H65.66C66.2375 28.8561 66.7625 29.1011 67.1825 29.5036C67.6375 29.9586 67.9 30.5886 67.9 31.2361C67.9 31.8836 67.6375 32.5136 67.1825 32.9686V32.9861C66.22 33.9486 64.68 33.9486 63.7175 32.9861ZM50.715 50.9936C50.6625 50.9586 50.5925 50.9586 50.5925 50.9586V50.9411C49.2625 50.5736 47.8625 50.7661 46.6725 51.4486C45.4825 52.1311 44.625 53.2511 44.275 54.5811C44.24 54.6161 44.24 54.6511 44.24 54.6861C44.0475 55.4736 43.365 55.9986 42.6125 55.9986C42.5075 55.9986 42.4025 55.9811 42.2975 55.9636C40.39 55.6136 38.675 54.6861 37.3275 53.2861C36.925 52.8661 36.9425 52.2011 37.3625 51.7986C37.7825 51.3961 38.4475 51.4136 38.85 51.8336C39.795 52.8136 40.985 53.4961 42.315 53.8286C42.8575 52.0611 44.03 50.5736 45.64 49.6461C47.25 48.7011 49.1225 48.4386 50.925 48.8586C51.31 47.5461 51.31 46.1811 50.925 44.8686C50.7675 44.3261 51.0825 43.7311 51.6425 43.5736C52.185 43.4161 52.78 43.7311 52.9375 44.2911C53.48 46.1461 53.4275 48.1061 52.78 49.9436C52.4825 50.7836 51.5725 51.2386 50.715 50.9936ZM51.3975 53.2161C50.085 52.8661 48.7025 53.1111 47.6 53.8811C46.725 54.4936 46.095 55.4036 45.815 56.4361C45.5 57.6086 45.6575 58.8336 46.27 59.8836C46.8825 60.9336 47.8625 61.6861 49.035 62.0011C49.42 62.1061 49.8225 62.1586 50.225 62.1586C51.0125 62.1586 51.8 61.9486 52.5 61.5461C53.5499 60.9336 54.3024 59.9536 54.6175 58.7811C54.8974 57.7486 54.7924 56.6461 54.3549 55.6836C53.7775 54.4586 52.71 53.5486 51.3975 53.1986V53.2161ZM52.5875 58.2561C52.4124 58.8861 52.01 59.4111 51.45 59.7436C50.8899 60.0761 50.225 60.1636 49.595 59.9886C48.965 59.8136 48.44 59.4111 48.1075 58.8511C47.775 58.2911 47.6875 57.6261 47.8625 56.9961C48.0025 56.4361 48.3525 55.9461 48.825 55.6311C49.42 55.2111 50.1725 55.0886 50.8725 55.2636C51.5725 55.4561 52.15 55.9461 52.465 56.5936C52.7099 57.1186 52.7625 57.6961 52.6049 58.2561H52.5875ZM27.685 53.8461C29.015 53.5136 30.205 52.8311 31.15 51.8511L31.1675 51.8686C31.57 51.4486 32.235 51.4311 32.655 51.8336C33.075 52.2361 33.0925 52.9011 32.69 53.3211C31.36 54.7036 29.6275 55.6311 27.72 55.9986C27.6325 56.0336 27.5275 56.0336 27.4225 56.0336C26.6525 56.0336 25.97 55.5086 25.7775 54.7386C25.7425 54.6861 25.7425 54.6686 25.7425 54.6336C25.375 53.2861 24.5175 52.1661 23.3275 51.4836C22.12 50.8011 20.7375 50.6261 19.4075 50.9761C19.3725 50.9936 19.3375 51.0111 19.3025 51.0111C18.41 51.2561 17.5175 50.8011 17.22 49.9611C16.5725 48.1236 16.52 46.1636 17.0625 44.3086C17.22 43.7486 17.7975 43.4336 18.3575 43.5911C18.9175 43.7486 19.2325 44.3261 19.075 44.8861C18.69 46.1986 18.69 47.5636 19.075 48.8761C20.8775 48.4561 22.75 48.7361 24.36 49.6636C25.9875 50.5911 27.16 52.0786 27.685 53.8461ZM21.7 53.4961C20.7375 53.0411 19.635 52.9536 18.6025 53.2336C17.43 53.5486 16.45 54.3011 15.8375 55.3511C15.225 56.4011 15.0675 57.6261 15.3825 58.7986C15.6975 59.9711 16.45 60.9511 17.5 61.5636C18.2 61.9661 18.9875 62.1761 19.775 62.1761C20.1775 62.1761 20.5625 62.1236 20.965 62.0186C21.9975 61.7386 22.9075 61.1086 23.52 60.2336C24.29 59.1311 24.535 57.7486 24.185 56.4361C23.835 55.1236 22.925 54.0561 21.7 53.4786V53.4961ZM21.7875 59.0261C21.455 59.4986 20.965 59.8311 20.4225 59.9886C19.7925 60.1636 19.1275 60.0761 18.5675 59.7436C18.0075 59.4111 17.5875 58.8861 17.43 58.2561C17.2725 57.6261 17.3425 56.9611 17.675 56.4011C18.0075 55.8411 18.5325 55.4211 19.1625 55.2636C19.7225 55.1061 20.3175 55.1586 20.825 55.4036C21.49 55.7186 21.9625 56.2961 22.155 56.9961C22.3475 57.6961 22.2075 58.4486 21.7875 59.0436V59.0261ZM15.2425 38.2186C15.8025 38.3586 16.1525 38.9361 16.0125 39.4961H15.995C15.89 39.9861 15.4525 40.3011 14.98 40.3011C14.91 40.3011 14.8225 40.2836 14.7351 40.2661L14.735 40.2661C12.8625 39.8111 11.1825 38.7786 9.9225 37.3086C9.345 36.6261 9.3975 35.6111 10.045 34.9986L10.1325 34.9111C11.095 33.9311 11.6375 32.6361 11.6375 31.2536C11.6375 29.8711 11.1125 28.5761 10.1325 27.5961C10.1203 27.5717 10.0996 27.5558 10.0822 27.5425C10.0747 27.5367 10.0678 27.5314 10.0625 27.5261C9.3975 26.8786 9.345 25.8636 9.9225 25.1986C11.2 23.7286 12.8625 22.7136 14.735 22.2411C15.295 22.1011 15.8725 22.4511 16.0125 23.0111C16.1525 23.5711 15.8025 24.1486 15.2425 24.2886C13.93 24.6036 12.74 25.3036 11.795 26.2836C13.055 27.6311 13.755 29.3811 13.755 31.2536C13.755 33.1261 13.0725 34.8761 11.795 36.2236C12.7225 37.2036 13.9125 37.8861 15.2425 38.2186ZM7.77 28.0336C6.0025 26.2661 3.115 26.2661 1.33 28.0336C0.4725 28.8911 0 30.0286 0 31.2536C0 32.4786 0.4725 33.6161 1.33 34.4736C2.0825 35.2261 3.08 35.6986 4.1475 35.7861C4.2175 35.7861 4.28312 35.7905 4.34875 35.7948C4.41437 35.7992 4.48 35.8036 4.55 35.8036C5.7575 35.8036 6.9125 35.3311 7.77 34.4736C8.7325 33.5111 9.205 32.1986 9.0825 30.8511C8.995 29.7836 8.5225 28.7861 7.77 28.0336ZM6.2825 32.9861C5.775 33.4936 5.0575 33.7561 4.34 33.6861C3.7625 33.6336 3.2375 33.3886 2.8175 32.9861C2.3625 32.5311 2.1 31.9011 2.1 31.2536C2.1 30.6061 2.3625 29.9761 2.8175 29.5211C3.29 29.0486 3.92 28.8036 4.55 28.8036C5.18 28.8036 5.81 29.0486 6.2825 29.5211C6.685 29.9236 6.9475 30.4661 6.9825 31.0436C7.0525 31.7611 6.79 32.4786 6.2825 32.9861ZM53.27 31.2536C53.27 38.6561 48.86 45.0261 42.525 47.8961H42.5075C42.4375 47.9486 42.3675 47.9836 42.28 48.0011C40.04 48.9811 37.5725 49.5236 34.9825 49.5236C32.2175 49.5236 29.5925 48.8936 27.23 47.7911C27.2125 47.7823 27.1906 47.7736 27.1687 47.7648C27.1469 47.7561 27.125 47.7473 27.1075 47.7386C20.9825 44.7986 16.73 38.5161 16.73 31.2711C16.73 24.0261 20.965 17.7611 27.09 14.8036C27.1081 14.7946 27.125 14.7855 27.1413 14.7768C27.1883 14.7517 27.2306 14.7291 27.2825 14.7161C29.6275 13.6136 32.235 13.0011 35 13.0011C39.445 13.0011 43.54 14.5936 46.7075 17.2536H46.7425C46.8125 17.3061 46.8825 17.3586 46.935 17.4286C50.8025 20.7886 53.27 25.7411 53.27 31.2536ZM43.155 45.1836C47.9325 42.3836 51.1525 37.1861 51.1525 31.2536H51.135C51.135 26.8086 49.3325 22.7661 46.41 19.8436C46.2175 20.4211 46.095 21.0161 45.9725 21.6111C45.7975 22.5386 45.6225 23.4311 45.08 24.0786C43.7076 25.729 42.2144 24.9822 41.3025 24.5261L41.2825 24.5161C40.565 24.1486 40.0925 23.9386 39.55 24.1136C38.7275 24.3761 37.905 25.1986 37.695 25.9686C37.555 26.4586 37.6775 26.8961 38.045 27.3161C39.5325 28.9786 40.0925 30.4311 39.7075 31.6211C39.445 32.4261 38.78 32.9861 37.8525 33.1961C37.45 33.2836 36.75 33.5286 36.6275 34.1411C36.5225 34.6486 36.82 35.4536 37.7125 36.0836C40.495 38.0436 42.98 41.5961 43.155 45.1836ZM19.8701 36.9262C20.7982 39.3681 22.3002 41.5483 24.2025 43.2586C23.765 42.1386 23.4675 40.9311 23.4325 39.7061C23.3626 37.5737 22.5944 37.4489 21.1977 37.2219L21.1925 37.2211C20.7922 37.1689 20.3228 37.0821 19.8701 36.9262ZM25.55 39.6536C25.6025 41.9461 26.915 44.4136 28.245 45.9186L28.2975 45.8661C30.345 46.8111 32.6375 47.3536 35.0525 47.3536C37.1875 47.3536 39.2175 46.9336 41.09 46.1811C41.4575 43.0136 39.1125 39.5311 36.575 37.7461C35.0875 36.6786 34.335 35.1211 34.6325 33.6686C34.895 32.3561 35.9275 31.4111 37.4675 31.0786C37.52 31.0786 37.73 31.0261 37.765 30.9211C37.835 30.7111 37.6775 29.9411 36.54 28.6811C35.7 27.7361 35.4025 26.5636 35.735 25.3736C36.1375 23.9211 37.485 22.5561 38.99 22.0836C40.3521 21.6353 41.4594 22.1893 42.2617 22.5907L42.2975 22.6086C43.2075 23.0636 43.2425 23.0461 43.5225 22.6961C43.7245 22.4772 43.8456 21.8534 43.9635 21.2454C43.9682 21.2215 43.9728 21.1975 43.9775 21.1736C44.135 20.3336 44.345 19.3361 44.8175 18.3561C42.105 16.2911 38.7275 15.0661 35.0525 15.0661C33.1975 15.0661 31.4125 15.3811 29.75 15.9586C30.9925 16.9736 32.2175 18.2861 31.465 19.9486C30.8335 21.3481 30.1355 21.8321 29.517 22.261C29.5013 22.2719 29.4856 22.2828 29.47 22.2936C29.05 22.5736 28.7 22.8186 28.2625 23.4311C28.0525 23.7111 27.7375 23.8686 27.405 23.8686C27.195 23.8686 26.985 23.8161 26.7925 23.6761C26.32 23.3436 26.215 22.6786 26.5475 22.2061C27.195 21.2961 27.79 20.8761 28.28 20.5436C28.805 20.1936 29.1375 19.9661 29.54 19.0736C29.7436 18.6156 28.6974 17.7958 27.8201 17.1084C27.7924 17.0866 27.7648 17.065 27.7375 17.0436C27.6892 17.0194 27.6492 16.9869 27.606 16.9518C27.5867 16.9361 27.5667 16.9199 27.545 16.9036C22.4 19.6161 18.8825 25.0061 18.8825 31.2186V31.4111C19.4511 30.7421 20.2115 30.185 20.9652 29.6329C21.0001 29.6073 21.0351 29.5817 21.07 29.5561C21.1005 29.534 21.1311 29.5118 21.1617 29.4897C22.341 28.6356 23.5601 27.7528 24.43 26.3711C24.745 25.8811 25.3925 25.7411 25.8825 26.0561C26.3725 26.3711 26.5125 27.0186 26.1975 27.5086C25.0775 29.2586 23.5375 30.3786 22.295 31.2711C20.72 32.4261 19.8975 33.0736 20.02 34.1586C20.09 34.8236 20.265 34.9286 21.56 35.1386L21.5881 35.1433C23.0437 35.3887 25.4457 35.7936 25.55 39.6536Z" fill="#BA94D8"/>
</svg>
