<svg width="32" height="32" viewBox="0 0 32 32" fill="none" xmlns="http://www.w3.org/2000/svg">
<circle cx="16" cy="16" r="16" fill="white"/>
<path d="M11.4049 24.3381H7.90305V13.2147H11.4049V24.3381ZM9.65156 11.6732C9.25433 11.671 8.86667 11.5511 8.5375 11.3288C8.20832 11.1064 7.95239 10.7915 7.802 10.4239C7.65161 10.0562 7.61351 9.65224 7.69249 9.26294C7.77147 8.87364 7.964 8.51646 8.24579 8.23648C8.52757 7.95649 8.88598 7.76626 9.27578 7.68978C9.66558 7.6133 10.0693 7.654 10.436 7.80675C10.8027 7.95949 11.1159 8.21744 11.3361 8.54803C11.5564 8.87863 11.6737 9.26705 11.6734 9.66428C11.6772 9.93023 11.6273 10.1942 11.5269 10.4405C11.4264 10.6868 11.2774 10.9103 11.0888 11.0978C10.9001 11.2852 10.6756 11.4328 10.4287 11.5317C10.1818 11.6305 9.91747 11.6787 9.65156 11.6732ZM24.3124 24.3478H20.8122V18.2709C20.8122 16.4787 20.0504 15.9256 19.0669 15.9256C18.0285 15.9256 17.0095 16.7084 17.0095 18.3162V24.3478H13.5076V13.2227H16.8752V14.7642H16.9205C17.2586 14.08 18.4426 12.9106 20.2493 12.9106C22.2032 12.9106 24.3141 14.0703 24.3141 17.467L24.3124 24.3478Z" fill="#0A66C2"/>
</svg>
