<svg width="32" height="32" viewBox="0 0 32 32" fill="none" xmlns="http://www.w3.org/2000/svg">
<circle cx="16" cy="16" r="16" fill="#F9F9F9"/>
<path d="M12.2222 23.3278H9.21528V13.7764H12.2222V23.3278ZM10.7167 12.4528C10.3756 12.4508 10.0427 12.3479 9.76006 12.157C9.47741 11.9661 9.25764 11.6957 9.12851 11.38C8.99937 11.0643 8.96665 10.7174 9.03447 10.3831C9.10229 10.0488 9.26761 9.74215 9.50957 9.50174C9.75153 9.26132 10.0593 9.09797 10.394 9.0323C10.7287 8.96663 11.0754 9.00158 11.3902 9.13274C11.7051 9.2639 11.9741 9.48539 12.1632 9.76926C12.3523 10.0531 12.453 10.3867 12.4528 10.7278C12.456 10.9561 12.4132 11.1828 12.327 11.3943C12.2407 11.6057 12.1128 11.7977 11.9508 11.9586C11.7887 12.1196 11.596 12.2463 11.384 12.3312C11.1719 12.4161 10.945 12.4574 10.7167 12.4528ZM23.3056 23.3361H20.3V18.118C20.3 16.5791 19.6458 16.1041 18.8014 16.1041C17.9097 16.1041 17.0347 16.7764 17.0347 18.1569V23.3361H14.0278V13.7833H16.9194V15.1069H16.9583C17.2486 14.5194 18.2653 13.5153 19.8167 13.5153C21.4944 13.5153 23.3069 14.5111 23.3069 17.4278L23.3056 23.3361Z" fill="#0A66C2"/>
</svg>
