<svg width="32" height="32" viewBox="0 0 32 32" fill="none" xmlns="http://www.w3.org/2000/svg">
<circle cx="16" cy="16" r="16" fill="#F9F9F9"/>
<g clip-path="url(#clip0_897_558)">
<path d="M27.5221 10.1855C27.3864 9.67489 27.119 9.20889 26.7466 8.83413C26.3743 8.45936 25.91 8.18897 25.4003 8.05002C23.5239 7.54547 16.0239 7.54547 16.0239 7.54547C16.0239 7.54547 8.52393 7.54547 6.64756 8.05002C6.13786 8.18897 5.67358 8.45936 5.30121 8.83413C4.92884 9.20889 4.66143 9.67489 4.52574 10.1855C4.02393 12.07 4.02393 16 4.02393 16C4.02393 16 4.02393 19.93 4.52574 21.8146C4.66143 22.3251 4.92884 22.7911 5.30121 23.1659C5.67358 23.5407 6.13786 23.8111 6.64756 23.95C8.52393 24.4546 16.0239 24.4546 16.0239 24.4546C16.0239 24.4546 23.5239 24.4546 25.4003 23.95C25.91 23.8111 26.3743 23.5407 26.7466 23.1659C27.119 22.7911 27.3864 22.3251 27.5221 21.8146C28.0239 19.93 28.0239 16 28.0239 16C28.0239 16 28.0239 12.07 27.5221 10.1855Z" fill="#FF0302"/>
<path d="M13.5693 19.5687V12.4314L19.8421 16L13.5693 19.5687Z" fill="#FEFEFE"/>
</g>
<defs>
<clipPath id="clip0_897_558">
<rect width="24" height="24" fill="white" transform="translate(4 4)"/>
</clipPath>
</defs>
</svg>
